<svg width="70" height="70" viewBox="0 0 70 70" fill="none" xmlns="http://www.w3.org/2000/svg">
<path d="M34.9997 5.8335C18.9288 5.8335 5.83301 18.9293 5.83301 35.0002C5.83301 51.071 18.9288 64.1668 34.9997 64.1668C51.0705 64.1668 64.1663 51.071 64.1663 35.0002C64.1663 18.9293 51.0705 5.8335 34.9997 5.8335ZM46.8413 40.221C46.4038 40.6585 45.8497 40.8627 45.2955 40.8627C44.7413 40.8627 44.1872 40.6585 43.7497 40.221L34.9997 31.471L26.2497 40.221C25.4038 41.0668 24.0038 41.0668 23.158 40.221C22.3122 39.3752 22.3122 37.9752 23.158 37.1293L33.4538 26.8335C34.2997 25.9877 35.6997 25.9877 36.5455 26.8335L46.8413 37.1293C47.6872 38.0043 47.6872 39.3752 46.8413 40.221Z" fill="#A58152"/>
</svg>
