<svg width="98" height="149" viewBox="0 0 98 149" fill="none" xmlns="http://www.w3.org/2000/svg">
<g id="Group">
<g id="Group_2">
<path id="Vector" d="M84.5724 148.59H13.4295C6.02478 148.59 0.00195312 142.567 0.00195312 135.16V31.7521C0.00195312 30.8407 0.7416 30.1011 1.65295 30.1011H11.1263C12.0377 30.1011 12.7773 30.8407 12.7773 31.7521C12.7773 32.6634 12.0377 33.4031 11.1263 33.4031H3.30394V135.16C3.30394 140.744 7.84582 145.288 13.4295 145.288H84.5724C90.1561 145.288 94.698 140.744 94.698 135.16V33.4031H70.6347C69.7217 33.4031 68.9837 32.6634 68.9837 31.7521C68.9837 30.8407 69.7217 30.1011 70.6347 30.1011H96.3489C97.2619 30.1011 97.9999 30.8407 97.9999 31.7521V135.16C97.9999 142.567 91.9755 148.59 84.5724 148.59Z" fill="black"/>
<path id="Vector_2" d="M70.4908 64.5574H1.65099C0.739643 64.5574 0 63.8177 0 62.9064C0 61.995 0.739643 61.2554 1.65099 61.2554H70.4891C71.4021 61.2554 72.1401 61.995 72.1401 62.9064C72.1401 63.8177 71.4021 64.5574 70.4908 64.5574Z" fill="black"/>
<path id="Vector_3" d="M70.6344 44.9219C69.7214 44.9219 68.9834 44.1822 68.9834 43.2709V15.4087C68.9834 8.73375 63.55 3.30199 56.875 3.30199H41.1245C34.4496 3.30199 29.0178 8.73375 29.0178 15.4087V43.2709C29.0178 44.1822 28.2782 44.9219 27.3668 44.9219C26.4555 44.9219 25.7158 44.1822 25.7158 43.2709V15.4087C25.7158 6.91271 32.6285 0 41.1245 0H56.8734C65.3694 0 72.2837 6.91271 72.2837 15.4087V43.2709C72.2854 44.1839 71.5457 44.9219 70.6344 44.9219Z" fill="black"/>
<path id="Vector_4" d="M54.174 33.4031H27.3668C26.4555 33.4031 25.7158 32.6634 25.7158 31.7521C25.7158 30.8407 26.4555 30.1011 27.3668 30.1011H54.174C55.087 30.1011 55.825 30.8407 55.825 31.7521C55.825 32.6634 55.087 33.4031 54.174 33.4031Z" fill="black"/>
<path id="Vector_5" d="M70.4908 124.455H1.65099C0.739643 124.455 0 123.717 0 122.804C0 121.891 0.739643 121.153 1.65099 121.153H70.4891C71.4021 121.153 72.1401 121.891 72.1401 122.804C72.1401 123.717 71.4021 124.455 70.4908 124.455Z" fill="black"/>
</g>
</g>
</svg>
