<svg width="25" height="25" viewBox="0 0 25 25" fill="none" xmlns="http://www.w3.org/2000/svg">
<g id="sad-tear" clip-path="url(#clip0_1_1202)">
<path id="Vector" d="M12.5 0.390625C5.81055 0.390625 0.390625 5.81055 0.390625 12.5C0.390625 19.1895 5.81055 24.6094 12.5 24.6094C19.1895 24.6094 24.6094 19.1895 24.6094 12.5C24.6094 5.81055 19.1895 0.390625 12.5 0.390625ZM16.4062 8.59375C17.2705 8.59375 17.9688 9.29199 17.9688 10.1562C17.9688 11.0205 17.2705 11.7188 16.4062 11.7188C15.542 11.7188 14.8438 11.0205 14.8438 10.1562C14.8438 9.29199 15.542 8.59375 16.4062 8.59375ZM7.8125 20.3125C6.51855 20.3125 5.46875 19.2871 5.46875 18.0176C5.46875 17.041 6.86035 15.0684 7.5 14.2188C7.65625 14.0088 7.96875 14.0088 8.125 14.2188C8.76465 15.0684 10.1562 17.041 10.1562 18.0176C10.1562 19.2871 9.10645 20.3125 7.8125 20.3125ZM8.59375 11.7188C7.72949 11.7188 7.03125 11.0205 7.03125 10.1562C7.03125 9.29199 7.72949 8.59375 8.59375 8.59375C9.45801 8.59375 10.1562 9.29199 10.1562 10.1562C10.1562 11.0205 9.45801 11.7188 8.59375 11.7188ZM16.9043 19.248C15.8105 17.9395 14.2041 17.1875 12.5 17.1875C11.4648 17.1875 11.4648 15.625 12.5 15.625C14.668 15.625 16.7139 16.582 18.1006 18.252C18.7744 19.0527 17.5537 20.0342 16.9043 19.248Z" fill="black"/>
</g>
<defs>
<clipPath id="clip0_1_1202">
<rect width="25" height="25" fill="white"/>
</clipPath>
</defs>
</svg>
