<svg width="61" height="54" viewBox="0 0 61 54" fill="none" xmlns="http://www.w3.org/2000/svg">
<g id="Group 5">
<path id="Vector" d="M14.7588 17.8286L19.1298 36.8803H51.815L56.1859 17.8286H26.3412H14.7588Z" fill="#BC9020"/>
<path id="Vector_2" d="M54.5225 40.2648H16.4218C16.1057 40.2648 15.8315 40.0462 15.7618 39.7382L9.84333 13.7438C9.24425 11.1112 6.93995 9.27331 4.24033 9.27331H0.676937C0.303268 9.27331 0 8.97004 0 8.59637C0 8.2227 0.303268 7.91943 0.676937 7.91943H4.24033C7.5756 7.91943 10.4228 10.1906 11.1634 13.4432L16.9613 38.9116H53.9816L59.3985 15.1214H26.341C25.9673 15.1214 25.664 14.8181 25.664 14.4444C25.664 14.0708 25.9673 13.7675 26.341 13.7675H60.2473C60.4538 13.7675 60.6481 13.8616 60.776 14.022C60.9047 14.1831 60.9534 14.3937 60.9067 14.5947L55.1818 39.7382C55.1121 40.0462 54.8386 40.2648 54.5225 40.2648Z" fill="black"/>
<path id="Vector_3" d="M13.1583 49.6025C10.2109 49.6025 7.8125 47.2048 7.8125 44.2574C7.8125 41.31 10.2102 38.9116 13.1583 38.9116H54.4798C54.8542 38.9116 55.1568 39.2142 55.1568 39.5886C55.1568 39.9629 54.8542 40.2655 54.4798 40.2655H13.1583C10.9575 40.2655 9.16637 42.0567 9.16637 44.2574C9.16637 46.4581 10.9575 48.2486 13.1583 48.2486C13.5319 48.2486 13.8352 48.5512 13.8352 48.9255C13.8352 49.2999 13.5319 49.6025 13.1583 49.6025Z" fill="black"/>
<path id="Vector_4" d="M49.7035 53.8966C46.9632 53.8966 44.7334 51.6667 44.7334 48.9258C44.7334 46.1849 46.9632 43.9551 49.7035 43.9551C52.4444 43.9551 54.6742 46.1849 54.6742 48.9258C54.6742 51.6667 52.4444 53.8966 49.7035 53.8966ZM49.7035 45.309C47.7099 45.309 46.0873 46.9309 46.0873 48.9258C46.0873 50.9208 47.7092 52.5427 49.7035 52.5427C51.6977 52.5427 53.3203 50.9208 53.3203 48.9258C53.3203 46.9309 51.6977 45.309 49.7035 45.309Z" fill="black"/>
<path id="Vector_5" d="M22.9881 53.8966C20.2479 53.8966 18.0181 51.6667 18.0181 48.9258C18.0181 46.1849 20.2479 43.9551 22.9881 43.9551C25.729 43.9551 27.9589 46.1849 27.9589 48.9258C27.9589 51.6667 25.729 53.8966 22.9881 53.8966ZM22.9881 45.309C20.9939 45.309 19.3719 46.9309 19.3719 48.9258C19.3719 50.9208 20.9939 52.5427 22.9881 52.5427C24.9824 52.5427 26.605 50.9208 26.605 48.9258C26.605 46.9309 24.9824 45.309 22.9881 45.309Z" fill="black"/>
<path id="Vector_6" d="M39.3199 49.6024H27.2819C26.9082 49.6024 26.605 49.2998 26.605 48.9255C26.605 48.5511 26.9082 48.2485 27.2819 48.2485H39.3199C39.6942 48.2485 39.9968 48.5511 39.9968 48.9255C39.9968 49.2998 39.6942 49.6024 39.3199 49.6024Z" fill="black"/>
<path id="Vector_7" d="M54.4794 15.121H36.5744C36.2001 15.121 35.8975 14.8177 35.8975 14.444V5.09149C35.8975 4.71782 36.2001 4.41455 36.5744 4.41455H54.4794C54.8537 4.41455 55.1563 4.71782 55.1563 5.09149V14.444C55.1563 14.8184 54.8537 15.121 54.4794 15.121ZM37.2513 13.7671H53.8024V5.76842H37.2513V13.7671Z" fill="black"/>
<path id="Vector_8" d="M18.8264 15.1207C18.4527 15.1207 18.1494 14.8175 18.1494 14.4438V0.676937C18.1494 0.303268 18.4527 0 18.8264 0H42.3194C42.6938 0 42.9964 0.303268 42.9964 0.676937V5.09124C42.9964 5.46491 42.6938 5.76818 42.3194 5.76818C41.9451 5.76818 41.6425 5.46491 41.6425 5.09124V1.35387H19.5033V14.4438C19.5033 14.8181 19.2 15.1207 18.8264 15.1207Z" fill="black"/>
<path id="Vector_9" d="M51.7712 7.79883H39.2817V11.7359H51.7712V7.79883Z" fill="#BC9020"/>
</g>
</svg>
