<svg width="107" height="107" viewBox="0 0 107 107" fill="none" xmlns="http://www.w3.org/2000/svg">
<path d="M78.4667 23.6737L53.2771 10.1204C50.6021 8.69375 47.4367 8.69375 44.7617 10.1204L19.6167 23.6737C17.7888 24.6992 16.6296 26.6608 16.6296 28.8008C16.6296 30.9854 17.7442 32.9471 19.6167 33.9279L44.8063 47.4813C46.1438 48.1946 47.6151 48.5513 49.0417 48.5513C50.4684 48.5513 51.9842 48.1946 53.2771 47.4813L78.4667 33.9279C80.2946 32.9471 81.4538 30.9854 81.4538 28.8008C81.4538 26.6608 80.2946 24.6992 78.4667 23.6737Z" fill="#A58152"/>
<path d="M40.6601 52.2071L17.2538 40.5262C15.4259 39.59 13.3751 39.7237 11.6363 40.7492C9.94216 41.8192 8.91675 43.6471 8.91675 45.6533V67.7667C8.91675 71.6008 11.0567 75.0337 14.4897 76.7725L37.8959 88.4533C38.6984 88.8546 39.5901 89.0775 40.4817 89.0775C41.5072 89.0775 42.5772 88.7654 43.5134 88.2304C45.2076 87.1604 46.233 85.3325 46.233 83.3262V61.2129C46.1884 57.3787 44.0484 53.9458 40.6601 52.2071Z" fill="#A58152"/>
<path d="M89.1667 45.6533V56.6208C87.0267 55.9967 84.7529 55.7292 82.4792 55.7292C76.4158 55.7292 70.4863 57.8246 65.805 61.5696C59.385 66.6075 55.7292 74.2312 55.7292 82.4792C55.7292 84.6637 55.9967 86.8483 56.5763 88.9437C55.9075 88.8546 55.2388 88.5871 54.6146 88.1858C52.9204 87.1604 51.895 85.3325 51.895 83.3262V61.2129C51.895 57.3787 54.035 53.9458 57.4234 52.2071L80.8296 40.5262C82.6575 39.59 84.7083 39.7237 86.4471 40.7492C88.1413 41.8192 89.1667 43.6471 89.1667 45.6533Z" fill="#A58152"/>
<path d="M97.9942 69.8621C94.3384 65.3592 88.7655 62.5058 82.4792 62.5058C77.7534 62.5058 73.3842 64.1554 69.9513 66.9196C65.3147 70.5754 62.4167 76.2375 62.4167 82.5683C62.4167 86.3133 63.4867 89.88 65.3147 92.9117C66.5184 94.9179 68.0342 96.6567 69.8176 98.0833H69.8622C73.2951 100.937 77.7088 102.631 82.4792 102.631C87.5617 102.631 92.1538 100.758 95.6759 97.6375C97.2363 96.3 98.5738 94.695 99.6438 92.9117C101.472 89.88 102.542 86.3133 102.542 82.5683C102.542 77.7533 100.848 73.295 97.9942 69.8621ZM92.5551 80.0717L81.8551 89.9692C81.2309 90.5487 80.3838 90.8608 79.5813 90.8608C78.7342 90.8608 77.8872 90.5487 77.2184 89.88L72.2697 84.9312C70.9767 83.6383 70.9767 81.4983 72.2697 80.2054C73.5626 78.9125 75.7026 78.9125 76.9955 80.2054L79.6705 82.8804L88.0076 75.1675C89.3451 73.9192 91.4851 74.0083 92.7334 75.3458C94.0263 76.7279 93.9372 78.8233 92.5551 80.0717Z" fill="#6DB74B"/>
</svg>
