<svg width="60" height="60" viewBox="0 0 60 60" fill="none" xmlns="http://www.w3.org/2000/svg">
<path d="M23.8033 2.97832C24.0539 2.92999 24.3 2.8511 24.555 2.83276C27.4627 2.83443 30.3705 2.83165 33.2777 2.83443C33.8589 2.9111 34.4461 2.95776 35.0216 3.0711C35.1172 3.09999 35.2139 3.12387 35.3089 3.15443C35.3611 3.16221 35.4133 3.16943 35.4666 3.1761C35.5789 3.22387 35.6927 3.26943 35.8055 3.31665C36.0722 3.35832 36.2016 3.61443 36.4255 3.73221C36.6327 3.83832 36.7622 4.0411 36.9477 4.1761C37.3877 4.50165 37.6711 4.98332 37.9339 5.45221C38.1855 5.87665 38.3455 6.34499 38.5172 6.80443C38.765 7.36776 39.0339 7.92665 39.18 8.52721C40.8494 12.7483 42.5189 16.9694 44.185 21.1917C44.955 23.1322 45.7205 25.0744 46.4883 27.0155C46.6989 27.5733 46.9444 28.1183 47.1327 28.6839C47.3905 28.6478 47.6189 28.5111 47.8633 28.4283C48.815 28.0417 49.7805 27.69 50.7544 27.3639C51.1844 27.2633 51.6111 27.1433 52.0466 27.0717C52.945 26.9994 53.8611 26.8361 54.755 27.0333C55.1833 27.0739 55.5722 27.2711 55.9705 27.4178C56.3616 27.6828 56.72 27.9989 57.0189 28.3667C57.2294 28.5555 57.3066 28.8328 57.4289 29.0783C57.5533 29.3272 57.6166 29.6 57.7044 29.8633C57.7616 30.0533 57.8489 30.2405 57.835 30.4439C57.8289 30.7417 57.8411 31.0394 57.8294 31.3372C57.7994 31.5661 57.7244 31.7861 57.6816 32.0128C57.6361 32.2944 57.4489 32.52 57.3222 32.7678C57.1544 33.0889 56.8972 33.3483 56.6772 33.6328C56.4333 33.9761 56.0789 34.2128 55.7633 34.485C55.2989 34.795 54.8122 35.0722 54.3089 35.315C53.0494 35.9561 51.7855 36.5889 50.5311 37.2389C51.8966 40.705 53.2694 44.1689 54.6377 47.6339C54.8589 48.165 55.0455 48.7094 55.2372 49.2517C55.3461 49.5444 55.3694 49.8589 55.4366 50.1622C55.545 50.8039 55.6127 51.4622 55.5111 52.1094C55.4661 52.5689 55.4316 53.0311 55.2939 53.475C55.0766 54.5478 54.3477 55.4483 53.4661 56.0655C53.0339 56.4194 52.5139 56.6344 52.0022 56.8455C51.8155 56.9278 51.6144 56.9672 51.4177 57.0167C51.1327 57.0833 50.8494 57.1805 50.5533 57.1683C49.905 57.1617 49.2566 57.1728 48.6089 57.1633C48.1828 57.1078 47.765 57.0028 47.3427 56.9261C46.8739 56.7811 46.42 56.5894 45.9972 56.3394C45.6661 56.1883 45.3977 55.9417 45.1083 55.7283C44.6966 55.44 44.3689 55.0544 44.0144 54.7028C43.59 54.2767 43.3761 53.705 43.0705 53.1983C42.8177 52.7855 42.6355 52.3372 42.4377 51.8972C41.4177 49.6205 40.3989 47.3433 39.3777 45.0672C39.1227 44.4705 38.83 43.8889 38.595 43.2839C31.075 47.0883 23.5527 50.8883 16.0322 54.6928C15.1094 55.1672 14.1772 55.6233 13.2422 56.0733C12.7289 56.3444 12.1844 56.5483 11.64 56.7467C11.2439 56.8517 10.8483 56.9605 10.4494 57.0544C10.1205 57.1361 9.77886 57.085 9.44719 57.1405C9.16941 57.1822 8.8883 57.1622 8.6083 57.1667C8.25941 57.1639 7.90608 57.1794 7.56275 57.1055C6.84552 56.8761 6.15386 56.5739 5.47275 56.2528C5.18997 56.0767 4.93219 55.8628 4.65997 55.6705C4.36997 55.4233 4.14275 55.1133 3.8733 54.845C3.54719 54.435 3.25997 53.9933 3.02941 53.5217C2.72219 53.0255 2.63052 52.4394 2.43941 51.8961C2.3083 51.5567 2.35497 51.19 2.29275 50.8389C2.2733 50.3905 2.18608 49.9467 2.22719 49.4967C2.28497 49.0572 2.31552 48.6155 2.3633 48.1755C2.45997 47.6983 2.58386 47.2267 2.69719 46.7533C3.01497 45.7755 3.37108 44.81 3.75219 43.855C3.96164 43.4267 4.2433 43.0344 4.41719 42.5878C4.64108 42.0489 4.8633 41.5089 5.09441 40.9728C5.18108 40.7483 5.27441 40.5261 5.37219 40.3061C5.45886 40.0817 5.55386 39.86 5.64997 39.64C5.72941 39.4322 5.82108 39.2305 5.9033 39.0244C6.00497 38.7855 6.10108 38.5444 6.20608 38.3072C6.53608 37.5094 6.86664 36.7111 7.20552 35.9172C7.29219 35.6922 7.38552 35.4705 7.4833 35.2505C7.56941 35.0261 7.66386 34.8044 7.76108 34.5844C7.84886 34.36 7.9433 34.1383 8.03886 33.9178C8.1183 33.7105 8.20997 33.5083 8.29275 33.3022C8.39497 33.0639 8.48941 32.8222 8.59497 32.585C8.83275 32.0094 9.06941 31.4333 9.31664 30.8617C9.4033 30.6372 9.49608 30.415 9.59441 30.195C9.68052 29.9705 9.77441 29.7483 9.87219 29.5283C9.95941 29.3044 10.0544 29.0828 10.15 28.8622C10.2377 28.6378 10.3322 28.4161 10.4277 28.1955C10.5072 27.9883 10.5989 27.7861 10.6816 27.5805C10.9339 26.9905 11.1705 26.3939 11.4277 25.8061C11.5144 25.5811 11.6072 25.3589 11.7055 25.1394C11.7922 24.915 11.8855 24.6928 11.9827 24.4728C12.07 24.2483 12.1661 24.0278 12.2611 23.8067C12.3494 23.5822 12.4433 23.3605 12.5389 23.14C12.6183 22.9328 12.71 22.7305 12.7927 22.525C12.8972 22.2872 12.99 22.0444 13.095 21.8072C13.3316 21.2311 13.5711 20.6561 13.8166 20.0839C13.9033 19.8594 13.9961 19.6372 14.0939 19.4172C14.1811 19.1928 14.2755 18.9717 14.3722 18.7511C14.46 18.5267 14.5544 18.305 14.65 18.0844C14.7377 17.86 14.8322 17.6389 14.9283 17.4183C15.0172 17.1944 15.1111 16.9728 15.2061 16.7517C15.4433 16.1761 15.6816 15.6005 15.9272 15.0283C16.0144 14.8039 16.1072 14.5817 16.2055 14.3617C16.2922 14.1372 16.3855 13.915 16.4833 13.6955C16.5711 13.4711 16.6655 13.2494 16.7611 13.0289C16.8405 12.8217 16.9322 12.6194 17.015 12.4133C17.1172 12.175 17.2122 11.9333 17.3172 11.6961C17.4072 11.4728 17.4989 11.25 17.595 11.0294C17.7411 10.6767 17.8844 10.3222 18.0389 9.97276C18.1255 9.74832 18.2183 9.52554 18.3166 9.3061C18.4033 9.08165 18.4966 8.85943 18.5944 8.63943C18.6816 8.41499 18.7772 8.19443 18.8722 7.97276C18.9783 7.71221 19.0789 7.44887 19.2055 7.19721C19.22 7.16943 19.2489 7.11499 19.2633 7.08776C19.2911 7.02887 19.3194 6.9711 19.3477 6.91276C19.4127 6.7861 19.4766 6.65887 19.5394 6.53054C19.9272 5.79221 20.4339 5.11276 21.0427 4.5411C21.48 4.15443 21.9361 3.77776 22.4755 3.54054C22.5027 3.5261 22.5583 3.49776 22.5861 3.48332C22.7483 3.39999 22.9194 3.33665 23.0866 3.26443C23.2294 3.18721 23.3805 3.12665 23.5311 3.06665C23.5577 3.0611 23.61 3.04999 23.6361 3.04443C23.6916 3.02221 23.7472 2.99999 23.8033 2.97832ZM23.4216 4.09276C23.1016 4.22443 22.7905 4.37776 22.4866 4.54332C21.6605 5.07054 20.9827 5.80999 20.4922 6.6561C20.1289 7.31387 19.8122 7.9961 19.5355 8.69443C14.6389 20.4272 9.73497 32.1567 4.84275 43.8905C5.09052 44.1189 5.29997 44.3939 5.57941 44.585C5.82497 44.675 6.07719 44.5344 6.31108 44.4655C11.4589 42.5444 16.6044 40.6183 21.745 38.68C21.7894 38.6555 21.8166 38.6161 21.8261 38.5617C22.8083 35.3344 23.8455 32.1239 24.8672 28.9089C26.3483 24.2517 27.8344 19.5955 29.3116 14.9372C29.95 12.9605 30.5555 10.9739 31.2144 9.00388C31.3866 8.37276 31.6333 7.76776 31.8716 7.15943C32.0533 6.80499 32.2616 6.46388 32.445 6.10999C32.575 5.86332 32.8183 5.70943 32.9839 5.48999C33.19 5.21387 33.4677 5.00221 33.6672 4.71999C33.9744 4.44387 34.2855 4.16943 34.6027 3.90332C34.1255 3.83332 33.6477 3.76499 33.1677 3.72221C30.3522 3.7211 27.5361 3.72387 24.7205 3.7211C24.2644 3.73221 23.8272 3.89499 23.4216 4.09276ZM34.5316 5.1461C34.2516 5.34499 34.0805 5.65276 33.8205 5.87499C33.63 6.12443 33.3905 6.33221 33.2039 6.58276C33.1227 6.7561 33.0161 6.91554 32.9294 7.08554C32.8516 7.23499 32.765 7.37887 32.6816 7.52499C32.6505 7.62387 32.6122 7.71943 32.5677 7.81221C32.5616 7.83665 32.5494 7.88443 32.5433 7.90832C32.5005 8.00165 32.4622 8.09665 32.4266 8.19276C32.3833 8.30443 32.3405 8.41665 32.2955 8.52776C32.2755 8.58443 32.2555 8.64054 32.235 8.69721C32.2289 8.72388 32.2161 8.77665 32.21 8.80332C32.1889 8.85943 32.1689 8.91554 32.1494 8.97165C32.0311 9.34221 31.9161 9.71332 31.7939 10.0822C31.7755 10.1383 31.7577 10.1939 31.7394 10.25C31.7216 10.3055 31.7033 10.3617 31.6855 10.4172C31.665 10.4733 31.6444 10.5294 31.6233 10.5855C31.6172 10.6117 31.6044 10.6644 31.5983 10.6905C31.5772 10.7467 31.5566 10.8033 31.5366 10.86C31.5189 10.9155 31.5016 10.9711 31.485 11.0267C31.42 11.23 31.3611 11.4355 31.2955 11.6383C31.2755 11.695 31.255 11.7511 31.2344 11.8072C31.2283 11.8339 31.2155 11.8867 31.2094 11.9128C31.1877 11.9694 31.1672 12.0255 31.1477 12.0828C31.0661 12.3417 30.9922 12.6033 30.9055 12.8605C30.8877 12.9167 30.87 12.9728 30.8527 13.0289C30.8322 13.085 30.8111 13.1411 30.7905 13.1967C30.7839 13.2233 30.7711 13.2772 30.765 13.3039C30.6739 13.5605 30.605 13.8244 30.5166 14.0822C30.4989 14.1383 30.4811 14.1944 30.4639 14.2511C30.4433 14.3067 30.4222 14.3628 30.4011 14.4189C30.395 14.4461 30.3827 14.4994 30.3766 14.5267C30.3039 14.7283 30.2483 14.9355 30.1816 15.1394C30.1639 15.1944 30.1461 15.25 30.1283 15.3055C30.1105 15.3611 30.0927 15.4172 30.0744 15.4733C30.0544 15.5294 30.0333 15.5855 30.0122 15.6411C30.0061 15.6678 29.9939 15.7217 29.9877 15.7489C29.915 15.95 29.8611 16.1578 29.7927 16.3611C29.7755 16.4167 29.7577 16.4722 29.7394 16.5278C29.7216 16.5833 29.7039 16.6394 29.6861 16.6955C29.6655 16.7517 29.6444 16.8072 29.6233 16.8633C29.6172 16.89 29.605 16.9439 29.5989 16.9705C29.5094 17.2278 29.4389 17.4917 29.3516 17.75C29.3311 17.8061 29.3111 17.8628 29.2905 17.9189C29.2839 17.9455 29.2711 17.9983 29.265 18.0244C29.2433 18.0805 29.2233 18.1372 29.2044 18.1939C29.1427 18.3978 29.0827 18.6022 29.0161 18.8044C28.9983 18.8605 28.9805 18.9167 28.9627 18.9728C28.9427 19.0289 28.9222 19.085 28.9016 19.1411C28.895 19.1678 28.8822 19.2217 28.8761 19.2483C28.8439 19.3311 28.8116 19.415 28.7911 19.5017C28.9333 19.8005 29.1377 20.0667 29.2894 20.3611C33.8894 30.635 38.4922 40.9078 43.0933 51.1811C43.3539 51.7483 43.5794 52.3339 43.9077 52.8672C44.1794 53.3133 44.3583 53.8294 44.7516 54.19C45.0294 54.4505 45.2728 54.75 45.585 54.9717C45.8322 55.1505 46.0577 55.3617 46.3289 55.5055C46.8289 55.7933 47.36 56.0505 47.9344 56.1417C48.2161 56.1867 48.4922 56.2805 48.7805 56.2789C49.2977 56.2778 49.815 56.2767 50.3322 56.2783C50.5166 56.2772 50.7055 56.2905 50.8866 56.2405C51.1905 56.1583 51.5055 56.1061 51.7916 55.9689C52.6739 55.6194 53.5 55.0511 54.0255 54.2489C54.4244 53.6283 54.5533 52.8861 54.6144 52.1644C54.6877 51.69 54.6933 51.2028 54.6183 50.7283C54.5627 50.2117 54.4727 49.6933 54.2822 49.2072C54.0594 48.57 53.8027 47.9455 53.5566 47.3172C48.5305 34.605 43.5072 21.8911 38.4811 9.17887C38.4027 8.99554 38.3366 8.80776 38.2877 8.61443C38.1089 7.97387 37.7622 7.39776 37.5572 6.76721C37.4272 6.41721 37.2744 6.07499 37.0811 5.75554C36.8927 5.43776 36.7111 5.09832 36.4044 4.87721C36.205 4.74387 36.07 4.52999 35.85 4.42665C35.7522 4.3761 35.6527 4.32943 35.5539 4.28221C35.1855 4.53554 34.8666 4.85221 34.5316 5.1461ZM28.4022 20.6622C28.3583 20.9211 28.2622 21.1672 28.185 21.4172C28.1644 21.4733 28.1439 21.53 28.1233 21.5861C28.1172 21.6128 28.105 21.6655 28.0983 21.6922C27.9861 22.0039 27.9033 22.3255 27.795 22.6394C27.7766 22.695 27.7583 22.7511 27.7405 22.8072C27.7211 22.8622 27.7022 22.9178 27.6833 22.9733C27.595 23.2705 27.5027 23.5667 27.4061 23.8617C27.3877 23.9172 27.3694 23.9733 27.3511 24.0294C27.3322 24.0844 27.3133 24.14 27.2944 24.1955C27.2044 24.4922 27.1144 24.7894 27.0166 25.0839C26.9989 25.1394 26.9805 25.1955 26.9622 25.2517C26.9433 25.3067 26.9244 25.3622 26.9055 25.4178C26.8322 25.6583 26.7594 25.8994 26.6816 26.1394C26.6639 26.195 26.6461 26.2505 26.6283 26.3067C26.61 26.3622 26.5922 26.4178 26.5739 26.4739C26.555 26.5289 26.5361 26.5844 26.5166 26.64C26.425 26.9361 26.3372 27.2339 26.2389 27.5278C26.2211 27.5839 26.2027 27.64 26.185 27.6961C26.1661 27.7511 26.1466 27.8067 26.1277 27.8617C26.0361 28.1583 25.9466 28.4555 25.85 28.7505C25.8322 28.8061 25.8139 28.8617 25.7955 28.9178C25.7766 28.9733 25.7577 29.0289 25.7389 29.0844C25.6461 29.3811 25.5605 29.6805 25.4566 29.9739C25.4505 29.9994 25.4383 30.0517 25.4322 30.0778C25.4105 30.1339 25.39 30.19 25.3694 30.2472C25.3511 30.3028 25.3333 30.3589 25.3161 30.4155C25.2316 30.675 25.1616 30.9394 25.0672 31.1961C25.0616 31.2228 25.0505 31.275 25.0455 31.3011C25.0139 31.3767 24.985 31.4528 24.9544 31.5289C24.9489 31.5561 24.9377 31.6094 24.9322 31.6367C24.8394 31.8933 24.7711 32.1583 24.6839 32.4172C24.6639 32.4733 24.6433 32.5294 24.6233 32.5855C24.6172 32.6117 24.6044 32.6639 24.5983 32.69C24.5772 32.7461 24.5572 32.8028 24.5372 32.86C24.4533 33.1189 24.3805 33.3811 24.2939 33.6389C24.2761 33.6944 24.2589 33.7505 24.2411 33.8072C24.2205 33.8628 24.1994 33.9189 24.1789 33.975C24.1727 34.0017 24.1605 34.0544 24.1544 34.0811C24.0422 34.3928 23.9594 34.715 23.8505 35.0283C23.8316 35.0839 23.8133 35.1394 23.7939 35.1955C23.7383 35.3805 23.6833 35.5655 23.6266 35.7505C23.6089 35.8061 23.5911 35.8617 23.5733 35.9178C23.5544 35.9733 23.5355 36.0283 23.5161 36.0844C23.4627 36.27 23.4083 36.455 23.3511 36.64C23.3311 36.6955 23.3105 36.7517 23.29 36.8083C23.2839 36.8344 23.2711 36.8878 23.265 36.9139C23.195 37.1167 23.1411 37.3244 23.0727 37.5283C23.0544 37.5833 23.0355 37.6394 23.0166 37.6955C22.9627 37.8739 22.9072 38.0522 22.865 38.2344C26.6816 36.7361 30.5044 35.2544 34.325 33.7661C34.1805 33.4872 34.0666 33.1939 33.9322 32.9105C32.1205 28.8511 30.2911 24.7994 28.4872 20.7367C28.4661 20.7183 28.4239 20.6805 28.4022 20.6622ZM52.2211 27.9467C51.9361 27.9583 51.6661 28.0578 51.3877 28.1117C50.8939 28.2122 50.4327 28.4233 49.955 28.5783C49.1222 28.875 48.3005 29.205 47.4827 29.5411C47.8761 30.5155 48.2572 31.4955 48.645 32.4728C49.1566 33.7828 49.6916 35.0844 50.1872 36.4005C51.6094 35.7055 53.0089 34.9661 54.4239 34.2572C54.8294 34.0244 55.2494 33.8044 55.5883 33.4772C55.8628 33.2894 56.0339 32.9989 56.2505 32.7533C56.47 32.5128 56.6072 32.215 56.7722 31.9383C56.9855 31.4528 56.9572 30.9089 56.9339 30.3911C56.8311 29.9411 56.6644 29.5061 56.4555 29.0955C56.2211 28.7472 55.9066 28.4617 55.5677 28.2189C55.275 28.0928 54.9761 27.965 54.66 27.9111C53.8544 27.7417 53.03 27.875 52.2211 27.9467ZM23.9677 38.7505C23.3472 39.0017 22.7133 39.2211 22.1039 39.4978C17.8272 41.1261 13.5705 42.8083 9.30441 44.4639C8.59386 44.7239 7.90608 45.0539 7.16775 45.2317C6.72886 45.3411 6.29608 45.5217 5.83608 45.5022C5.63941 45.4933 5.42552 45.5339 5.24775 45.43C4.90275 45.25 4.65108 44.9494 4.37608 44.6844C4.07719 45.4717 3.7833 46.2617 3.52497 47.0639C3.42219 47.4683 3.32441 47.8755 3.2383 48.2839C3.19997 48.9861 3.02886 49.6894 3.15219 50.3922C3.16886 50.745 3.21719 51.0944 3.2383 51.4472C3.30608 51.79 3.44552 52.1139 3.53275 52.4522C3.61275 52.7989 3.81608 53.095 3.97775 53.4067C4.27497 53.9894 4.72164 54.4767 5.17441 54.9411C5.50608 55.1833 5.81664 55.4717 6.20997 55.6122C6.72219 55.8539 7.24719 56.0683 7.78441 56.2467C8.16775 56.3022 8.55775 56.2672 8.9433 56.2789C9.28108 56.2955 9.61164 56.2061 9.94886 56.22C10.2333 56.23 10.5055 56.1383 10.7772 56.0655C11.4283 55.9105 12.0561 55.6639 12.6555 55.3667C14.3622 54.5594 16.0405 53.6933 17.7233 52.8367C19.2716 52.0505 20.8289 51.2822 22.3733 50.4878C24.0172 49.6467 25.6755 48.8333 27.3172 47.9878C29.0483 47.1039 30.7933 46.2461 32.5211 45.3555C34.42 44.3978 36.3194 43.4422 38.215 42.4794C37.04 39.8428 35.8627 37.2067 34.6733 34.5767C31.1077 35.975 27.5361 37.3594 23.9677 38.7505Z" fill="black"/>
<path d="M23.4217 4.09286C23.8272 3.89508 24.2644 3.7323 24.7206 3.72119C27.5361 3.72397 30.3522 3.72119 33.1678 3.7223C33.6478 3.76508 34.1256 3.83341 34.6028 3.90341C34.2856 4.16952 33.9744 4.44397 33.6672 4.72008C33.4678 5.0023 33.19 5.21397 32.9839 5.49008C32.8183 5.70952 32.575 5.86341 32.445 6.11008C32.2617 6.46397 32.0533 6.80508 31.8717 7.15952C31.6333 7.76786 31.3867 8.37286 31.2144 9.00397C30.5556 10.974 29.95 12.9606 29.3117 14.9373C27.8344 19.5956 26.3483 24.2517 24.8672 28.909C23.8456 32.124 22.8083 35.3345 21.8261 38.5617C21.8167 38.6162 21.7894 38.6556 21.745 38.6801C16.6044 40.6184 11.4589 42.5445 6.31111 44.4656C6.07722 44.5345 5.825 44.6751 5.57944 44.5851C5.3 44.394 5.09055 44.119 4.84277 43.8906C9.735 32.1567 14.6389 20.4273 19.5356 8.69452C19.8122 7.99619 20.1289 7.31397 20.4922 6.65619C20.9828 5.81008 21.6606 5.07064 22.4867 4.54341C22.7906 4.37786 23.1017 4.22452 23.4217 4.09286Z" fill="#A58152"/>
<path d="M34.5316 5.14612C34.8666 4.85223 35.1855 4.53556 35.5538 4.28223C35.6527 4.32945 35.7521 4.37612 35.8499 4.42667C36.0699 4.53 36.2049 4.74389 36.4044 4.87723C36.711 5.09834 36.8927 5.43778 37.081 5.75556C37.2744 6.075 37.4271 6.41723 37.5571 6.76723C37.7621 7.39778 38.1088 7.97389 38.2877 8.61445C38.3366 8.80778 38.4027 8.99556 38.481 9.17889C43.5071 21.8911 48.5305 34.605 53.5566 47.3172C53.8027 47.9456 54.0594 48.57 54.2821 49.2072C54.4727 49.6933 54.5627 50.2117 54.6182 50.7283C54.6932 51.2028 54.6877 51.69 54.6143 52.1644C54.5532 52.8861 54.4244 53.6283 54.0255 54.2489C53.4999 55.0511 52.6738 55.6194 51.7916 55.9689C51.5055 56.1061 51.1905 56.1583 50.8866 56.2406C50.7055 56.2906 50.5166 56.2772 50.3321 56.2783C49.8149 56.2767 49.2977 56.2778 48.7805 56.2789C48.4921 56.2806 48.216 56.1867 47.9344 56.1417C47.3599 56.0506 46.8288 55.7933 46.3288 55.5056C46.0577 55.3617 45.8321 55.1506 45.5849 54.9717C45.2727 54.75 45.0294 54.4506 44.7516 54.19C44.3582 53.8294 44.1794 53.3133 43.9077 52.8672C43.5794 52.3339 43.3538 51.7483 43.0932 51.1811C38.4921 40.9078 33.8894 30.635 29.2894 20.3611C29.1377 20.0667 28.9332 19.8006 28.791 19.5017C28.8116 19.415 28.8438 19.3311 28.876 19.2483C28.8821 19.2217 28.8949 19.1678 28.9016 19.1411C28.9221 19.085 28.9427 19.0289 28.9627 18.9728C28.9805 18.9167 28.9982 18.8606 29.016 18.8045C29.0827 18.6022 29.1427 18.3978 29.2043 18.1939C29.2232 18.1372 29.2432 18.0806 29.2649 18.0244C29.271 17.9983 29.2838 17.9456 29.2905 17.9189C29.311 17.8628 29.331 17.8061 29.3516 17.75C29.4388 17.4917 29.5094 17.2278 29.5988 16.9706C29.6049 16.9439 29.6171 16.89 29.6232 16.8633C29.6443 16.8072 29.6655 16.7517 29.686 16.6956C29.7038 16.6394 29.7216 16.5833 29.7393 16.5278C29.7577 16.4722 29.7755 16.4167 29.7927 16.3611C29.861 16.1578 29.9149 15.95 29.9877 15.7489C29.9938 15.7217 30.006 15.6678 30.0121 15.6411C30.0332 15.5856 30.0544 15.5294 30.0744 15.4733C30.0927 15.4172 30.1105 15.3611 30.1282 15.3056C30.146 15.25 30.1638 15.1944 30.1816 15.1394C30.2482 14.9356 30.3038 14.7283 30.3766 14.5267C30.3827 14.4994 30.3949 14.4461 30.401 14.4189C30.4221 14.3628 30.4432 14.3067 30.4638 14.2511C30.481 14.1944 30.4988 14.1383 30.5166 14.0822C30.6049 13.8244 30.6738 13.5606 30.7649 13.3039C30.771 13.2772 30.7838 13.2233 30.7905 13.1967C30.811 13.1411 30.8321 13.085 30.8527 13.0289C30.8699 12.9728 30.8877 12.9167 30.9055 12.8606C30.9921 12.6033 31.066 12.3417 31.1477 12.0828C31.1671 12.0256 31.1877 11.9694 31.2094 11.9128C31.2155 11.8867 31.2282 11.8339 31.2343 11.8072C31.2549 11.7511 31.2755 11.695 31.2955 11.6383C31.361 11.4356 31.4199 11.23 31.4849 11.0267C31.5016 10.9711 31.5188 10.9156 31.5366 10.86C31.5566 10.8033 31.5771 10.7467 31.5982 10.6906C31.6044 10.6644 31.6171 10.6117 31.6232 10.5856C31.6443 10.5294 31.6649 10.4733 31.6855 10.4172C31.7032 10.3617 31.7216 10.3056 31.7393 10.25C31.7577 10.1939 31.7755 10.1383 31.7938 10.0822C31.916 9.71334 32.031 9.34223 32.1493 8.97167C32.1688 8.91556 32.1888 8.85945 32.2099 8.80334C32.216 8.77667 32.2288 8.72389 32.2349 8.69723C32.2555 8.64056 32.2755 8.58445 32.2955 8.52778C32.3405 8.41667 32.3832 8.30445 32.4266 8.19278C32.4621 8.09667 32.5005 8.00167 32.5432 7.90834C32.5494 7.88445 32.5616 7.83667 32.5677 7.81223C32.6121 7.71945 32.6505 7.62389 32.6816 7.525C32.7649 7.37889 32.8516 7.235 32.9293 7.08556C33.016 6.91556 33.1227 6.75612 33.2038 6.58278C33.3905 6.33223 33.6299 6.12445 33.8205 5.875C34.0805 5.65278 34.2516 5.345 34.5316 5.14612Z" fill="#A58152"/>
<path d="M52.2212 27.9467C53.0301 27.875 53.8546 27.7417 54.6601 27.9111C54.9762 27.965 55.2751 28.0928 55.5679 28.2189C55.9068 28.4617 56.2212 28.7473 56.4557 29.0956C56.6646 29.5061 56.8312 29.9411 56.934 30.3911C56.9574 30.9089 56.9857 31.4528 56.7724 31.9384C56.6074 32.215 56.4701 32.5128 56.2507 32.7534C56.034 32.9989 55.8629 33.2895 55.5885 33.4773C55.2496 33.8045 54.8296 34.0245 54.424 34.2573C53.009 34.9661 51.6096 35.7056 50.1874 36.4006C49.6918 35.0845 49.1568 33.7828 48.6451 32.4728C48.2574 31.4956 47.8762 30.5156 47.4829 29.5411C48.3007 29.205 49.1224 28.875 49.9551 28.5784C50.4329 28.4234 50.894 28.2123 51.3879 28.1117C51.6662 28.0578 51.9362 27.9584 52.2212 27.9467Z" fill="#A58152"/>
<path d="M23.968 38.7505C27.5363 37.3594 31.108 35.975 34.6735 34.5767C35.863 37.2067 37.0402 39.8428 38.2152 42.4794C36.3196 43.4422 34.4202 44.3978 32.5213 45.3555C30.7935 46.2461 29.0485 47.1039 27.3174 47.9878C25.6757 48.8333 24.0174 49.6467 22.3735 50.4878C20.8291 51.2822 19.2718 52.0505 17.7235 52.8367C16.0407 53.6933 14.3624 54.5594 12.6557 55.3667C12.0563 55.6639 11.4285 55.9105 10.7774 56.0655C10.5057 56.1383 10.2335 56.23 9.94906 56.22C9.61184 56.2061 9.28129 56.2955 8.94351 56.2789C8.55795 56.2672 8.16795 56.3022 7.78462 56.2467C7.2474 56.0683 6.7224 55.8539 6.21017 55.6122C5.81684 55.4717 5.50629 55.1833 5.17462 54.9411C4.72184 54.4767 4.27517 53.9894 3.97795 53.4067C3.81629 53.095 3.61295 52.7989 3.53295 52.4522C3.44573 52.1139 3.30629 51.79 3.23851 51.4472C3.2174 51.0944 3.16906 50.745 3.1524 50.3922C3.02906 49.6894 3.20017 48.9861 3.23851 48.2839C3.32462 47.8755 3.4224 47.4683 3.52518 47.0639C3.78351 46.2617 4.0774 45.4717 4.37629 44.6844C4.65129 44.9494 4.90295 45.25 5.24795 45.43C5.42573 45.5339 5.63962 45.4933 5.83629 45.5022C6.29629 45.5217 6.72906 45.3411 7.16795 45.2317C7.90629 45.0539 8.59406 44.7239 9.30462 44.4639C13.5707 42.8083 17.8274 41.1261 22.1041 39.4978C22.7135 39.2211 23.3474 39.0017 23.968 38.7505Z" fill="#A58152"/>
</svg>
