<svg width="83" height="84" viewBox="0 0 83 84" fill="none" xmlns="http://www.w3.org/2000/svg">
<path d="M41.1232 67.6121C55.289 67.6121 66.7727 56.1284 66.7727 41.9625C66.7727 27.7967 55.289 16.313 41.1232 16.313C26.9573 16.313 15.4736 27.7967 15.4736 41.9625C15.4736 56.1284 26.9573 67.6121 41.1232 67.6121Z" fill="#060606"/>
<path d="M31.346 61.3386C31.1987 61.3386 31.0495 61.3041 30.9105 61.2304C30.4554 60.9889 30.282 60.4247 30.5235 59.9687L50.0773 23.0834C50.3188 22.6283 50.883 22.4549 51.339 22.6964C51.7931 22.937 51.9675 23.5021 51.7259 23.9571L32.1713 60.8434C32.0034 61.1576 31.6798 61.3386 31.346 61.3386Z" fill="white"/>
<path d="M31.3132 40.9532C27.9757 40.9532 25.2603 38.2377 25.2603 34.8993V28.6413C25.2603 25.3038 27.9757 22.5884 31.3132 22.5884C34.6506 22.5884 37.367 25.3038 37.367 28.6413V34.8993C37.3661 38.2368 34.6506 40.9532 31.3132 40.9532ZM31.3132 24.4534C29.0043 24.4534 27.1253 26.3324 27.1253 28.6413V34.8993C27.1253 37.2092 29.0043 39.0872 31.3132 39.0872C33.623 39.0872 35.5011 37.2082 35.5011 34.8993V28.6413C35.5011 26.3315 33.622 24.4534 31.3132 24.4534Z" fill="white"/>
<path d="M50.9333 61.3384C47.5958 61.3384 44.8804 58.6229 44.8804 55.2846V49.0265C44.8804 45.6881 47.5958 42.9727 50.9333 42.9727C54.2717 42.9727 56.9871 45.6881 56.9871 49.0265V55.2846C56.9871 58.6229 54.2717 61.3384 50.9333 61.3384ZM50.9333 44.8377C48.6244 44.8377 46.7463 46.7167 46.7463 49.0256V55.2836C46.7463 57.5925 48.6244 59.4715 50.9333 59.4715C53.2422 59.4715 55.1212 57.5925 55.1212 55.2836V49.0256C55.1212 46.7176 53.2422 44.8377 50.9333 44.8377Z" fill="white"/>
<path d="M41.1233 83.9257C39.0681 83.9266 37.0128 83.1778 35.4117 81.6811C33.7062 80.0884 31.263 79.5308 29.0362 80.2255C24.8529 81.5347 20.3312 79.3555 18.7441 75.2692C17.8992 73.0937 15.94 71.5317 13.6312 71.1923C9.29406 70.5535 6.1655 66.6305 6.50866 62.2617C6.69143 59.9341 5.60413 57.6775 3.67104 56.3692C0.0417188 53.9129 -1.07543 49.0201 1.12902 45.2322C2.30305 43.2152 2.30305 40.7096 1.12902 38.6925C-1.07543 34.9047 0.0407864 30.0128 3.67104 27.5556C5.60413 26.2473 6.69143 23.9897 6.50866 21.6631C6.1655 17.2934 9.29406 13.3703 13.6312 12.7325C15.94 12.393 17.8983 10.8301 18.7441 8.6546C20.3322 4.56929 24.8529 2.39375 29.0362 3.69833C31.2621 4.39398 33.7062 3.83634 35.4117 2.24361C38.6149 -0.747871 43.6346 -0.747871 46.8349 2.24361C48.5414 3.83727 50.9855 4.39491 53.2105 3.69833C57.3956 2.39375 61.9155 4.57022 63.5035 8.65554C64.3474 10.8311 66.3076 12.393 68.6165 12.7334C72.9526 13.3712 76.0812 17.2943 75.739 21.664C75.5562 23.9906 76.6435 26.2482 78.5766 27.5565C82.2059 30.0128 83.323 34.9047 81.1177 38.6935C79.9446 40.7105 79.9446 43.2171 81.1177 45.2331C83.323 49.021 82.2059 53.9139 78.5766 56.3701C76.6435 57.6784 75.5562 59.9351 75.739 62.2626C76.0803 66.6333 72.9526 70.5563 68.6165 71.1932C66.3076 71.5327 64.3484 73.0955 63.5026 75.2702C61.9155 79.3555 57.3965 81.5347 53.2114 80.2264C50.9837 79.5326 48.5414 80.0894 46.8359 81.6821C45.2338 83.1778 43.1786 83.9257 41.1233 83.9257ZM30.9665 78.0667C33.059 78.0667 35.1152 78.851 36.6855 80.3187C39.1744 82.6435 43.0741 82.6435 45.5621 80.3187C47.7563 78.2672 50.9016 77.5501 53.7672 78.4463C57.0245 79.4599 60.5316 77.7693 61.7635 74.5941C62.8517 71.7947 65.3732 69.7842 68.3442 69.3478C71.7133 68.8526 74.1444 65.8033 73.8786 62.4081C73.6436 59.4129 75.0424 56.5072 77.5303 54.8249C80.3511 52.9161 81.2184 49.1152 79.5054 46.1712C77.9956 43.5761 77.9956 40.3505 79.5054 37.7554C81.2184 34.8114 80.3511 31.0105 77.5303 29.1017C75.0424 27.4185 73.6436 24.5128 73.8786 21.5185C74.1444 18.1233 71.7133 15.0749 68.3442 14.5788C65.3732 14.1415 62.8508 12.131 61.7635 9.3316C60.5307 6.15735 57.0245 4.46578 53.7672 5.48035C50.9016 6.37462 47.7563 5.65752 45.5621 3.60787C43.0732 1.2822 39.1735 1.28313 36.6855 3.60787C34.4904 5.65846 31.3479 6.37555 28.4804 5.48035C25.2287 4.46391 21.716 6.15735 20.4832 9.3316C19.3959 12.131 16.8744 14.1415 13.9034 14.5788C10.5334 15.0749 8.10231 18.1233 8.36994 21.5185C8.60494 24.5128 7.20524 27.4185 4.71824 29.1017C1.89741 31.0105 1.03018 34.8114 2.74319 37.7554C4.25386 40.3515 4.25386 43.577 2.74319 46.1712C1.03018 49.1152 1.89834 52.9161 4.71824 54.8249C7.20617 56.5072 8.60494 59.4129 8.36994 62.4081C8.10325 65.8033 10.5343 68.8517 13.9034 69.3478C16.8744 69.7842 19.3959 71.7956 20.4832 74.5941C21.7169 77.7693 25.2306 79.458 28.4804 78.4463C29.2954 78.1908 30.1337 78.0667 30.9665 78.0667Z" fill="white"/>
<path d="M41.1235 73.2083C33.3753 73.2083 25.9432 70.352 20.1961 65.1645C19.8138 64.8195 19.784 64.2301 20.129 63.8478C20.474 63.4655 21.0624 63.4347 21.4457 63.7807C26.8496 68.6577 33.8378 71.3433 41.1235 71.3433C57.3239 71.3433 70.504 58.1632 70.504 41.9628C70.504 25.7623 57.3239 12.5823 41.1235 12.5823C24.923 12.5823 11.7429 25.7623 11.7429 41.9628C11.7429 45.9735 12.5365 49.8611 14.1013 53.5156C14.3036 53.9893 14.0845 54.5376 13.6108 54.74C13.137 54.9451 12.5897 54.7223 12.3864 54.2495C10.7218 50.3609 9.87793 46.2271 9.87793 41.9618C9.87793 24.7328 23.8945 10.7163 41.1235 10.7163C58.3525 10.7163 72.369 24.7328 72.369 41.9618C72.3699 59.1918 58.3525 73.2083 41.1235 73.2083Z" fill="white"/>
</svg>
